<?xml version="1.0" encoding="utf-8"?>
<!-- Generator: Adobe Illustrator 26.0.3, SVG Export Plug-In . SVG Version: 6.00 Build 0)  -->
<svg version="1.1" id="Layer_1" xmlns="http://www.w3.org/2000/svg" xmlns:xlink="http://www.w3.org/1999/xlink" x="0px" y="0px"
	 viewBox="0 0 420 121.5" style="enable-background:new 0 0 420 121.5;" xml:space="preserve">
<style type="text/css">
	.st0{fill:#231F20;}
	.st1{fill:#038DFF;}
</style>
<path class="st0" d="M56.3,89.5c-8.1,0-14.7-2.6-19.7-7.9S29,69.4,29,60.8c0-7.1,1.6-13,4.9-17.8L23.4,32.4h27.7h5.1
	c0,0,7.3,0,10.6,0.8c3.6,0.9,7.1,2.3,10.4,4l5.6-16.6c-4.1-2.6-8.6-4.5-13.3-5.8c-5.1-1.4-10.3-2.1-15.6-2.1
	c-8.2-0.1-16.3,1.9-23.5,5.9c-7,4-12.8,9.8-16.6,16.8c-4.1,7.3-6.2,15.7-6.2,25.2c-0.1,8.5,1.8,17,5.6,24.7
	c3.6,7.1,9.2,13.1,16.1,17.1c7,4.2,15.2,6.2,24.6,6.2c11.3,0,21.3-2.8,29.8-8.3L78,83.7C71.4,87.5,63.9,89.6,56.3,89.5z"/>
<path class="st0" d="M148.9,20.1c-7.1-3.9-15.5-5.8-25.3-5.8H90.2v92.8h33.4c9.4,0,17.7-1.8,24.8-5.5c7-3.6,12.7-9.1,16.4-16
	c3.9-7,5.8-15.3,5.8-24.8c0-9.3-1.9-17.4-5.6-24.4C161.5,29.5,155.8,23.8,148.9,20.1z M142.6,81.7c-4.5,4.9-10.8,7.4-18.9,7.4H111
	V43l-10.6-10.7h23.3c8.1,0,14.4,2.5,19,7.4s6.8,11.9,6.8,20.9C149.3,69.8,147.1,76.7,142.6,81.7z"/>
<path class="st0" d="M259.5,36.4c-3.6-7.1-9.1-13.1-15.8-17.2c-7.1-4.3-15.3-6.5-23.6-6.4c-8-0.1-15.9,1.9-22.9,5.9
	c-6.9,4-12.5,9.9-16.2,16.9c-4.1,7.8-6.2,16.4-6,25.2c-0.1,8.5,1.8,16.8,5.6,24.4c3.6,7.1,9.1,13.1,15.8,17.2
	c7.1,4.3,15.4,6.5,23.7,6.4c8,0.1,15.9-1.9,22.9-5.9c6.9-4,12.5-9.9,16.2-16.9c4.1-7.8,6.2-16.4,6-25.2
	C265.2,52.3,263.3,43.9,259.5,36.4z M237.2,81.6c-7.8,9.5-21.8,10.8-31.3,3c-1.1-0.9-2.1-1.9-3-3c-4.4-5.4-6.6-12.3-6.6-20.8
	c0-6.9,1.5-12.8,4.4-17.7l-10.7-10.7H220c6.3,0,12.8,2.2,17.2,7.6s6.6,12.3,6.6,20.8S241.5,76.2,237.2,81.6L237.2,81.6z"/>
<g>
	<path class="st1" d="M357.5,12.8h14.7v61.1c0,10.8-2.4,19-7.2,24.8c-4.8,5.7-11.7,8.6-20.8,8.6s-16-2.9-20.8-8.6
		c-4.8-5.7-7.2-14-7.2-24.8V12.8h14.7v60.9c0,6.5,1.1,11.5,3.4,14.8c2.3,3.3,5.6,5,9.9,5c4.3,0,7.6-1.7,9.9-5
		c2.3-3.3,3.4-8.3,3.4-14.8V12.8z"/>
	<path class="st1" d="M388.8,105.7V12.8h14.7v92.9H388.8z"/>
</g>
</svg>
